/* XPM */
static char *result[] = {
/* columns rows colors chars-per-pixel */
"32 32 15 1 ",
"  c #4B3619",
". c #4E381C",
"X c #533A1E",
"o c #6B4B26",
"O c #7A5A34",
"+ c #8A6A43",
"@ c #9D774C",
"# c #B18556",
"$ c #B4A16F",
"% c #C9A55E",
"& c #C7AC78",
"* c #D4B87F",
"= c #E0C288",
"- c #F0D191",
"; c None",
/* pixels */
";;;;;;;;;;;;;;;;;;;;;;;;;;;;;;;;",
";;;;;;;;;;;;;;;;;;;;;;;;;;;;;;;;",
";;;;;;;;;;;;;;;;;;;;;;;;;;;;;;;;",
";;;;;;;;;;;;;;;;;;;;;;;;;;;;;;;;",
";;;;;;;;;;;;;;&&$$;;;;;;;;;;;;;;",
";;;;;;;;;;;;;&=**%$;;;;;;;;;;;;;",
";;;;;;;;;;;;&=*=$*%$;;;;;;;;;;;;",
";;;;;;;;;;;;&-%--$*$;;;;;;;;;;;;",
";;;;;;;;;;;;@-=%%*=+;;;;;;;;;;;;",
";;;;;;;;;;;;+#---=@o;;;;;;;;;;;;",
";;;;;;;;;;;;O@##+@OX;;;;;;;;;;;;",
";;;;;;;;;;;;O@#@O+OX;;;;;;;;;;;;",
";;;;;;;;;;;;O@#@++OX;;;;;;;;;;;;",
";;;;;;;;;;;;O@#@O+OX;;;;;;;;;;;;",
"+++++++O+OOOo@#@++OXOOOO+O++++++",
"##########@@O@#@++OXO+@#########",
"########@##@o+#@O+OXo+##@#######",
"+++++++++++Oo+@@++oXoOO+++++++++",
"OOOOOOOOOOooX+#@O+oXXooOOOOOOOOO",
"XXXXXXXXXXXXo+@@++oXXXXXXXXXXXXX",
";;;;;;;;;;;;oO@@O+oX;;;;;;;;;;;;",
";;;;;;;;;;;;XO@@O+oX;;;;;;;;;;;;",
";;;;;;;;;;;;oO+@O+oX;;;;;;;;;;;;",
";;;;;;;;;;;;XO+@o+oX;;;;;;;;;;;;",
";;;;;;;;;;;;Xo++oOoX;;;;;;;;;;;;",
";;;;;;;;;;;;XoO+oOoX;;;;;;;;;;;;",
";;;;;;;;;;;;;XoOooX ;;;;;;;;;;;;",
";;;;;;;;;;;;;;XoXX.;;;;;;;;;;;;;",
";;;;;;;;;;;;;;;;;;;;;;;;;;;;;;;;",
";;;;;;;;;;;;;;;;;;;;;;;;;;;;;;;;",
";;;;;;;;;;;;;;;;;;;;;;;;;;;;;;;;",
";;;;;;;;;;;;;;;;;;;;;;;;;;;;;;;;"
};
