/* XPM */
static char *result[] = {
/* columns rows colors chars-per-pixel */
"32 32 15 1 ",
"  c #463119",
". c #47311A",
"X c #533A1E",
"o c #6B4B26",
"O c #7A5A34",
"+ c #8A6A43",
"@ c #9D774C",
"# c #B18556",
"$ c #B4A16F",
"% c #C9A55E",
"& c #C7AC78",
"* c #D4B87F",
"= c #E0C288",
"- c #F0D191",
"; c None",
/* pixels */
";;;;;;;;;;;;;;;;;;;;;;;;;;;;;;;;",
";;;;;;;;;;;;;;;;;;;;;;;;;;;;;;;;",
";;;;;;;;;;;;;;;;;;;;;;;;;;;;;;;;",
";;;;;;;;;;;;;;;;;;;;;;;;;;;;;;;;",
";;;;;;;;;;;;;;&&$$;;;;;;;;;;;;;;",
";;;;;;;;;;;;;&=**%$;;;;;;;;;;;;;",
";;;;;;;;;;;;&=*=$*%$;;;;;;;;;;;;",
";;;;;;;;;;;;&-%--$*$;;;;;;;;;;;;",
";;;;;;;;;;;;@-=%%*=+;;;;;;;;;;;;",
";;;;;;;;;;;;+#---=@o;;;;;;;;;;;;",
";;;;;;;;;;;;O@##+@OX;;;;;;;;;;;;",
";;;;;;;;;;;;O@#@O+OX;;;;;;;;;;;;",
";;;;;;;;;;;;O@#@++OX;;;;;;;;;;;;",
";;;;;;;;;;;;O@#@O+OX;;;;;;;;;;;;",
";;;;;;;;;;;;o@#@++OXOOOO+O++++++",
";;;;;;;;;;;;O@#@++OXO+@#########",
";;;;;;;;;;;;o+#+O+OXo+##@#######",
";;;;;;;;;;;;o++ooOoXoOO+++++++++",
";;;;;;;;;;;;X+O@+ooXXooOOOOOOOOO",
";;;;;;;;;;;;o+O#@XoXXXXXXXXXXXXX",
";;;;;;;;;;;;oOO#@XoX;;;;;;;;;;;;",
";;;;;;;;;;;;XO+#@XoX;;;;;;;;;;;;",
";;;;;;;;;;;;oOO#@XoX;;;;;;;;;;;;",
";;;;;;;;;;;;XO+#@XoX;;;;;;;;;;;;",
";;;;;;;;;;;;Xo+#@XoX;;;;;;;;;;;;",
";;;;;;;;;;;;Xo+#@XoX;;;;;;;;;;;;",
";;;;;;;;;;;;;X+#@XX ;;;;;;;;;;;;",
";;;;;;;;;;;;;;+#@X.;;;;;;;;;;;;;",
";;;;;;;;;;;;;;+#@X;;;;;;;;;;;;;;",
";;;;;;;;;;;;;;+#@X;;;;;;;;;;;;;;",
";;;;;;;;;;;;;;+#@X;;;;;;;;;;;;;;",
";;;;;;;;;;;;;;+#@X;;;;;;;;;;;;;;"
};
