/* XPM */
static char *d97e873e2efd48a8acb7c75b7aca4e5cw6ucnMrHdfe1CjIW[] = {
/* columns rows colors chars-per-pixel */
"32 32 15 1 ",
"  c None",
". c #463119",
"X c #49341B",
"o c #533A1E",
"O c #6B4B26",
"+ c #7A5A34",
"@ c #8A6A43",
"# c #9D774C",
"$ c #B18556",
"% c #B4A16F",
"& c #C9A55E",
"* c #C7AC78",
"= c #D4B87F",
"- c #E0C288",
"; c #F0D191",
/* pixels */
"              @$#o              ",
"              @$#o              ",
"              @$#o              ",
"              @$#o              ",
"              **%%              ",
"             *-==&%             ",
"            *-=-%=&%            ",
"            *;&;;%=%            ",
"            #;-&&=-@            ",
"            @$;;;-#O            ",
"            +#$$@#+o            ",
"            +#$#+@+o            ",
"            +#$#@@+o            ",
"            +#$#+@+o            ",
"@@@@@@@+@+++O#$#@@+o++++@+@@@@@@",
"$$$$$$$$$$##+#$#@@+o+@#$$$$$$$$$",
"$$$$$$$$#$$#O@$#+@+oO@$$#$$$$$$$",
"@@@@@@@@@@@+O@##@@OoO++@@@@@@@@@",
"++++++++++OOo@$#+@OooOO+++++++++",
"ooooooooooooO@##@@Oooooooooooooo",
"            O+##+@Oo            ",
"            o+##+@Oo            ",
"            O+@#+@Oo            ",
"            o+@#O@Oo            ",
"            oO@@O+Oo            ",
"            oO+@O+Oo            ",
"             oO+OOo.            ",
"              oOooX             ",
"                                ",
"                                ",
"                                ",
"                                "
};
