/* XPM */
static char *_ff99ebbd7774b8cf70496a6803b34eePijzMzrP0ZmTtN1d[] = {
/* columns rows colors chars-per-pixel */
"32 32 15 1 ",
"  c None",
". c #48301A",
"X c #49341B",
"o c #533A1E",
"O c #6B4B26",
"+ c #7A5A34",
"@ c #8A6A43",
"# c #9D774C",
"$ c #B18556",
"% c #B4A16F",
"& c #C9A55E",
"* c #C7AC78",
"= c #D4B87F",
"- c #E0C288",
"; c #F0D191",
/* pixels */
"              @$#o              ",
"              @$#o              ",
"              @$#o              ",
"              @$#o              ",
"              **%%              ",
"             *-==&%             ",
"            *-=-%=&%            ",
"            *;&;;%=%            ",
"            #;-&&=-@            ",
"            @$;;;-#O            ",
"            +#$$@#+o            ",
"            +#$#+@+o            ",
"            +#$#@@+o            ",
"            +#$#+@+o            ",
"            O#$#@@+o            ",
"            +#$#@@+o            ",
"            O@$@+@+o            ",
"            O@@OO+Oo            ",
"            o@+#@OOo            ",
"            O@+$#oOo            ",
"            O++$#oOo            ",
"            o+@$#oOo            ",
"            O++$#oOo            ",
"            o+@$#oOo            ",
"            oO@$#oOo            ",
"            oO@$#oOo            ",
"             o@$#oo.            ",
"              @$#oX             ",
"              @$#o              ",
"              @$#o              ",
"              @$#o              ",
"              @$#o              "
};
