/* XPM */
static char *_413c45196234dc8e7569ed357d2389elI2YJNn3nAmmq799[] = {
/* columns rows colors chars-per-pixel */
"32 32 85 1 ",
"  c None",
". c #682A21",
"X c #6B2B22",
"o c #6E2D23",
"O c #712E24",
"+ c #773026",
"@ c #7D3328",
"# c #7A3D36",
"$ c #6F4B4C",
"% c #7D6167",
"& c #89382C",
"* c #8F3A2E",
"= c #963D30",
"- c #963D31",
"; c #993E30",
": c #9C3F33",
"> c #9D3C3C",
", c #824038",
"< c #9C4033",
"1 c #9D4033",
"2 c #9F493C",
"3 c #A04134",
"4 c #A34235",
"5 c #A54336",
"6 c #A54436",
"7 c #A94536",
"8 c #A84437",
"9 c #AB4638",
"0 c #A64B3E",
"q c #A94A3B",
"w c #B54A3B",
"e c #B84C3C",
"r c #C2503F",
"t c #97534C",
"y c #9A544D",
"u c #855C5B",
"i c #A94F41",
"p c #AF5649",
"a c #9F605B",
"s c #9B605C",
"d c #BC6356",
"f c #A76660",
"g c #BF7A72",
"h c #B07B78",
"j c #C85241",
"k c #C85341",
"l c #C95242",
"z c #CC5343",
"x c #CD5443",
"c c #D15644",
"v c #D15645",
"b c #D45746",
"n c #D95A47",
"m c #DC5A48",
"M c #DF5C49",
"N c #E15D4A",
"B c #E55F4B",
"V c #E65F4C",
"C c #E8604C",
"Z c #EC624E",
"A c #F1644F",
"S c #F76651",
"D c #F76751",
"F c #F86752",
"G c #FA6852",
"H c #FB6853",
"J c #FD6953",
"K c #FF6A54",
"L c #FF6E58",
"P c #FF705B",
"I c #CF786C",
"U c #FF7E6B",
"Y c #E37F70",
"T c #E28377",
"R c #EE8172",
"E c #EC8273",
"W c #FF8473",
"Q c #FF8878",
"! c #A87F81",
"~ c #EC8C80",
"^ c #FF9181",
"/ c #FF9586",
"( c #F89689",
") c #F5A196",
"_ c #FFABA0",
/* pixels */
"                                ",
"                                ",
"                                ",
"                                ",
"                                ",
"                                ",
"                                ",
"                                ",
"                                ",
"                                ",
"                                ",
"           iiq7o         fi2    ",
"        hdd//UK6        dT~g    ",
"      !IEQQKKKKKeea    YE0=     ",
"     ;p_WKKKKKKKKKe. ;p^N@.     ",
"    s)(P>NKDMKKKKKFA,)(L9       ",
"    tKKKKKKDmKKKKKKKKFFV=       ",
"    yKKKKKKDmKKKKKKKvljl*       ",
"     ejKKKKVZnwFJVVj4;5j*       ",
"       <jnmzCv91b&&    4wu      ",
"        %+++;xlO#       +..     ",
"             ...                ",
"             $$$                ",
"                                ",
"                                ",
"                                ",
"                                ",
"                                ",
"                                ",
"                                ",
"                                ",
"                                "
};
