/* XPM */
static char *ba55d552c33e4e06ddb13ee50df698e6FDj2XYrz1XxmEKCh[] = {
/* columns rows colors chars-per-pixel */
"32 32 4 1 ",
"  c #C1BC6A",
". c #CBC67C",
"X c #DAD379",
"o c #D2CD82",
/* pixels */
" .    ......X.oo  ...X......... ",
"  .......ooo..oo ..XXX..X. ...X.",
"  ..X..oo    ...........o.. o...",
".. . .o..X...o...X..X..  ... .. ",
"...... o....X.ooo.  .o.......oo.",
".X.XX .  .......  ..  ..XX...  .",
"..X. .... .. ..o..... oo...oo...",
".... ...ooo....  ..   .  oo . .X",
".. ...   ....o ..oo.X....  o....",
"   oo... ..oo .......... ...oo. ",
"... .ooo.    ...X.X....  .X..  .",
"X... .o....  X......  ..o.X.....",
"...X.. .X.o. .o.oo...... ooo..X.",
".....X...o .X..    o...X. .  ...",
" .ooo..   .oo. ....X...X   .  ..",
"..      ........XXoo.oo  ...... ",
"X...... ooo. .  ........X.......",
".. ..X.. .  ...  ..... ....o ...",
"   oo.... ......   ..  ...  .oo.",
".... ooo  .X..oo..  .....  ...  ",
"....o . .X.   o  .ooooo. ..X. ..",
"X..X..  .........   oo   .......",
".ooo....  ....X..... ..   .....X",
"....X..o...X.o..X..o ......  ...",
"..X..o.   ....ooo.o ..X..o......",
"o.  ..   oo.X..... oo..  .oo...X",
"  .. .....o.....   ..o ..o  oo..",
"....  ..... ...o...X. ......    ",
"..... o.X... ... .... ..X...X ..",
"..X..  .ooo..    ..o .oo........",
"X.X.X..o..  ......o  ..  ooo.o..",
"......  ....oo.X.. .....  ..   ."
};
