/* XPM */
static char *result[] = {
/* columns rows colors chars-per-pixel */
"32 32 10 1 ",
"  c #252241",
". c #2C3068",
"X c #6C2B44",
"o c #96515E",
"O c #433986",
"+ c #3C5393",
"@ c #696DB1",
"# c #5CA6E1",
"$ c #ADA9C7",
"% c None",
/* pixels */
"%%%%%%%%%%%........  %%%%%%%%%%%",
"%%%%%%%    ########.    %%%%%%%%",
"%%%    ..#.++++++++..##.   .. %%",
"%% . .##++#+++++++..#++###... %%",
"% .#. .++..XX  XXXX  .... .##. %",
"% .+#. ... XXXXXXoXX  .. .#++. %",
" .#++#...  ooXXooooXX   .#+++#. ",
" .+++..   XooXXooooXXX   ++... .",
" . ... XoX XoXXooooXXooo  ..###.",
" ###..XoooXooXXooooXXoooX .#+++ ",
".+++#.XoooXooXXooooXXooX  .++++.",
" ++++. XoX oX  XooX       .++++ ",
"..+.+.              OOOO  .++++.",
"%  .. @@OOOOOOOOO$@$$$@@O ..... ",
"..... @@@@@@@@@@@$@$$$@@O    . %",
" ####.O@@@@@@@@@@$@$$$@@O  .... ",
".++++ OOOOOOOOOOO$@$$$@OO .####.",
" ++++.OOOOOOOOOOOOOOOOOOO .++++.",
".++++. X X         OOOOOO .++++.",
" ++.+ XXXXXoo XoooXXXoooX ..###.",
".#.#..XoooXooXXooooXXoooX .++++.",
" ++++.XXoX ooX XooX  XoX  .++++.",
".++++.O    Xo             .++++.",
" .... O@OOO   OOOOOOOOOOO .++++.",
"  ..  O@@@@@O@@@@$@$$$$@@O .....",
" .... O@@@@@@@@@@$@$$$$@@O .... ",
".####.OOOOOOOOOOOOOOOOOOOO.####.",
" ++++. OOOOOOOOOOOOOOOOOOO.++++.",
".++++.                    .++++.",
" ....  XX  XXX XXXX   XXX  .....",
"    .  oXX XXXXXooXX XXXXX  ....",
".+.#..  o  ooo oooo  Xooo .+##+."
};
