/* XPM */
static char *result[] = {
/* columns rows colors chars-per-pixel */
"32 32 44 1 ",
"  c #4C8924",
". c #4B8724",
"X c #3F721F",
"o c #4A8623",
"O c #4A8523",
"+ c #488222",
"@ c #3D6D1D",
"# c #467E22",
"$ c #41741F",
"% c #42761F",
"& c #4B8824",
"* c #457D21",
"= c #457B21",
"- c #498423",
"; c #417520",
": c #498323",
"> c #3E6F1D",
", c #447A21",
"< c #478022",
"1 c #3F711E",
"2 c #457C21",
"3 c #437820",
"4 c #447920",
"5 c #3E701E",
"6 c #447B21",
"7 c #467E21",
"8 c #40721E",
"9 c #3F711F",
"0 c #40741F",
"q c #3F731F",
"w c #427820",
"e c #437921",
"r c #3E6E1E",
"t c #40731F",
"y c #417620",
"u c #427620",
"i c #467F21",
"p c #4C8824",
"a c #488122",
"s c #477F22",
"d c #467F22",
"f c #3E6E1D",
"g c #3E6F1E",
"h c #437920",
/* pixels */
" .   Xo   O+   @ @  X     # +   ",
" $  %XO &*X%*@%* @=-X  O  ;:%*@ ",
" >>@@  ;X@,@<$@*  @1< <XXX22$+@ ",
"  342o*XX5,  $*@  @@ 6XXX2:  <  ",
"-7,: 6XXX2X   89 22@         @@8",
"@5X  X0qX: w.@$ X@XXe2222X   $*.",
".XXX<O& rw5tXXX   5+    > X y2u@",
"2<>  yt;X=@ 4= XXo&#2XwXX8 8@@3 ",
"     OwX6X   ii2     XXXXX    < ",
" X   2p-@:   @@o as  @i  6 = i1i",
"  yXXXy22-X o@* ; .+XX @@*2X   p",
"d-%e+X<>+ #>@4 &; 8 :3@@@ 2X    ",
"w%@8 3@@@O o @@:O @+ s=+> o  +@*",
" #>@+s=+>t@=@@4tX 8    <.2@X@1@@",
" X-8   <: &<@4 Xw+  @  XX XX@@@4",
"+w#    XX 6 o  o& @ ==@XXe::@4o ",
"X  @ =@XX  %*  *@@ = XO &&      ",
"#  = + < <;@<@@+$@8@ < <XqX2 $@@",
"@@  =<  &q2o $*@$$@@o 6XX2X2 +$*",
" @@@f *XX22    @  @fs XXX2X&  8 ",
" $ 22;XXX2;  88g  22aXXXX o8XXX#",
".X;XsO& r  OXXX 2t%&   O  @ o2u1",
"2    @%+=X   i$:@    XXXXX @    ",
" ;   2p-@      X 2t-22: h  %d222",
"  yXXXy2 @to@@<   eXXt o+ X0 +@<",
"X-%e+X<+  o@@4  ;w.+X< >@ o @@@*",
"+%@8 3 @@ 8    2; 8 :@ @@X$   +-",
" #>@+s +@w+ i@@XXO@+ = +4t=  1@@",
" w-8   :3X&@@@@tXX8    <: $:@@@@",
"+w    XX X6@@@4Xw#  @  XO X6@@@4",
"X  @ @XX #6@14oX& @ =@ dOw66<4o ",
"w  = +<:  :-   o  =  =   t&:o   "
};
