/* XPM */
static char *result[] = {
/* columns rows colors chars-per-pixel */
"32 32 2 1 ",
"  c #424C7D",
". c #35355F",
/* pixels */
"                                ",
"         ....................   ",
"        ......................  ",
"        ......................  ",
"        ......................  ",
"        ......................  ",
"        ......................  ",
"        ......................  ",
"        ......................  ",
"        ......................  ",
"        ......................  ",
"         ....................   ",
"                                ",
"                                ",
"                                ",
"  .......                       ",
" .........                      ",
" .........                      ",
" .........                      ",
" .........                      ",
" .........                      ",
" .........                      ",
" .........                      ",
" .........                      ",
" .........                      ",
"  .......                       ",
"                                ",
"                                ",
"                                ",
"                                ",
"                                ",
"                                "
};
