/* XPM */
static char *result[] = {
/* columns rows colors chars-per-pixel */
"32 32 8 1 ",
"  c #67386C",
". c #A32732",
"X c #BF4830",
"o c #F77622",
"O c #FEE861",
"+ c #0099DC",
"@ c #C0CCDC",
"# c None",
/* pixels */
"################################",
"################################",
"################################",
"##############OOOO##############",
"#############OOOOO##############",
"#############OOOX###############",
"############OOOoo###############",
"############OOOo.###############",
"############OOOoO###############",
"#############OOo################",
"#############oooo###############",
"#############o@@@###############",
"############oo@@@###############",
"############o#@@o###############",
"############o#@@#o##############",
"###########o#++@##o#############",
"###########o#+++###o############",
"###########o##+++###############",
"############## ++###############",
"##############  ++##############",
"##############  #+##############",
"############## ##+##############",
"############## ##+##############",
"############# ###++#############",
"############# ####+#############",
"############ #####+#############",
"############.#####.#############",
"#############.#####.############",
"################################",
"################################",
"################################",
"################################"
};
