/* XPM */
static char *result[] = {
/* columns rows colors chars-per-pixel */
"32 32 9 1 ",
"  c #B31200",
". c #FF3118",
"X c #80460D",
"o c #C66300",
"O c #FF945A",
"+ c #FFAC80",
"@ c gray80",
"# c white",
"$ c None",
/* pixels */
"$$$$$$$$$$$$$$......$$$$$$$$$$$$",
"$$$$$$$$$$..... .@#..$$$$$$$$$$$",
"$$$$$$$$.....  .@ .#.$$$$$$$$$$$",
"$$$$$$$..        .........$$$$$$",
"$$$$$$.       ...          $$$$$",
"$$$$$$.                   $$$$$$",
"$$$$$$ .    XXXoO@XOOX@Xo$$$$$$$",
"$$$$$$$XXoXXXoOO+#oO+o#o$$$$$$$$",
"$$$$$$XXo+oXoOO+O++OO++++$$$$$$$",
"$$$$$$Xo+OoXOO+++OOO+OO+++$$$$$$",
"$$$$$$XoOO+oO+++oXooOOOO+++$$$$$",
"$$$$$$XXoO++oO+oXXXXooO+O++$$$$$",
"$$$$$$$Xoo++++OOoXXXXXXooo$$$$$$",
"$$$$$$$XXoO+++++OooooooO+$$$$$$$",
"$$$$$$$$XOOOOOOOOOOOOOO+$$$$$$$$",
"$$$$$$$$$o   oXXXXo   o$$$$$$$$$",
"$$$$$$$ooX .oXXXXXXo. Xo$$$$$$$$",
"$$$$$oooXX. XXXXXXXX .XXo$$$$$$$",
"$$$$oooXX .. XXXXXX .. XXoo$$$$$",
"$$$ooXXXX              XXXXoo$$$",
"$$ooXXXXX ....    .... XXXXXoo$$",
"$$+oXXXX .+#...  ...+#. XXooo+$$",
"$$+OO++X..O+........O+..X++OO+$$",
"$$++OO+O .............. O+OO++$$",
"$$+O+OO+. ... .... ... .+OO+O+$$",
"$$$+O+O$ . . .    . . . $O+O+$$$",
"$$$$$$$$$ .    $$    . $$$$$$$$$",
"$$$$$$$$ . .  $$$$  . . $$$$$$$$",
"$$$$$$$$XX. . $$$$ . .XX$$$$$$$$",
"$$$$$$$XoXXXX$$$$$$XXXXoX$$$$$$$",
"$$$$$XooXooXo$$$$$$oXooXooX$$$$$",
"$$$$$$XXXXXXX$$$$$$XXXXXXX$$$$$$"
};
