/* XPM */
static char *result[] = {
/* columns rows colors chars-per-pixel */
"32 32 5 1 ",
"  c #E5968A",
". c gray20",
"X c #CC6A14",
"o c #9C4A00",
"O c black",
/* pixels */
"               .               .",
" XXXXXXXXXXXXXX. XXXXXXXXXXXXXX.",
" XXoXoXoooXoXoX. XXoXoXoooXoXoX.",
" XoooXoooXooooX. XoooXoooXooooX.",
" XooooXoooXoXoX. XooooXoooXoXoX.",
" XoXoXoXoooXoXX. XoXoXoXoooXoXX.",
"XXXXXXXXXXXXXXX.XXXXXXXXXXXXXXX.",
"OOOOOO.O.OOOOO.O.OOOOO.O.OOOOO.O",
"       .               .        ",
"XXXXXXX. XXXXXXXXXXXXXX. XXXXXXX",
"ooXoXoX. XXoXoXoooXoXoX. XXoXoXo",
"oXooooX. XoooXoooXooooX. XoooXoo",
"ooXoXoX. XooooXoooXoXoX. XooooXo",
"oooXoXX. XoXoXoXoooXoXX. XoXoXoX",
"XXXXXXX.XXXXXXXXXXXXXXX.XXXXXXXX",
".OOOOO.OOOOOOO.O.OOOOO.O.OOOOO.O",
"               .               .",
" XXXXXXXXXXXXXX. XXXXXXXXXXXXXX.",
" XXoXoXoooXoXoX. XXoXoXoooXoXoX.",
" XoooXoooXooooX. XoooXoooXooooX.",
" XooooXoooXoXoX. XooooXoooXoXoX.",
" XoXoXoXoooXoXX. XoXoXoXoooXoXX.",
"XXXXXXXXXXXXXXX.XXXXXXXXXXXXXXX.",
"OOOOOO.O.OOOOO.O.OOOOO.O.OOOOO.O",
"       .               .        ",
"XXXXXXX. XXXXXXXXXXXXXX. XXXXXXX",
"ooXoXoX. XXoXoXoooXoXoX. XXoXoXo",
"oXooooX. XoooXoooXooooX. XoooXoo",
"ooXoXoX. XooooXoooXoXoX. XooooXo",
"oooXoXX. XoXoXoXoooXoXX. XoXoXoX",
"XXXXXXX.XXXXXXXXXXXXXXX.XXXXXXXX",
".OOOOO.OOOOOOO.O.OOOOO.O.OOOOO.O"
};
